<svg version="1.1" viewBox="0.0 0.0 768.0 384.0" fill="none" stroke="none" stroke-linecap="square" stroke-miterlimit="10" xmlns:xlink="http://www.w3.org/1999/xlink" xmlns="http://www.w3.org/2000/svg"><clipPath id="p.0"><path d="m0 0l768.0 0l0 384.0l-768.0 0l0 -384.0z" clip-rule="nonzero"/></clipPath><g clip-path="url(#p.0)"><path fill="#000000" fill-opacity="0.0" d="m0 0l768.0 0l0 384.0l-768.0 0z" fill-rule="evenodd"/><path fill="#000000" fill-opacity="0.0" d="m392.99344 194.14174l0 0c0 -79.320274 64.29474 -143.62206 143.6063 -143.62206l0 0c38.086792 0 74.61359 15.131569 101.54498 42.065926c26.931396 26.934357 42.06134 63.465187 42.06134 101.55613l0 0c0 79.32027 -64.29474 143.62206 -143.60632 143.62206l0 0c-79.311554 0 -143.6063 -64.30179 -143.6063 -143.62206z" fill-rule="evenodd"/><path stroke="#cccccc" stroke-width="1.0" stroke-linejoin="round" stroke-linecap="butt" d="m392.99344 194.14174l0 0c0 -79.320274 64.29474 -143.62206 143.6063 -143.62206l0 0c38.086792 0 74.61359 15.131569 101.54498 42.065926c26.931396 26.934357 42.06134 63.465187 42.06134 101.55613l0 0c0 79.32027 -64.29474 143.62206 -143.60632 143.62206l0 0c-79.311554 0 -143.6063 -64.30179 -143.6063 -143.62206z" fill-rule="evenodd"/><path fill="#ffffff" d="m57.996063 84.80446l0 0c0 -18.7081 15.165916 -33.874012 33.874016 -33.874012l0 0c8.983948 0 17.599937 3.568859 23.952545 9.921471c6.3526077 6.3526115 9.921471 14.968594 9.921471 23.952541l0 0c0 18.708107 -15.165916 33.874016 -33.874016 33.874016l0 0c-18.7081 0 -33.874016 -15.165909 -33.874016 -33.874016z" fill-rule="evenodd"/><path fill="#000000" fill-opacity="0.0" d="m71.77559 48.206036l40.18898 0l0 73.19685l-40.18898 0z" fill-rule="evenodd"/><path fill="#000000" d="m102.728714 93.40291l2.171875 0l0 2.203125l-8.359375 0l0 -2.203125l3.921875 0l-1.8125 -4.5625l-11.5625 0l-1.71875 4.5625l3.640625 0l0 2.203125l-8.46875 0l0 -2.203125l2.46875 0l7.328125 -18.484375l-5.71875 0l0 -2.1875l9.796875 0l8.3125 20.671875zm-4.953125 -6.75l-5.046875 -12.359375l-4.75 12.359375l9.796875 0z" fill-rule="nonzero"/><path fill="#ff0000" d="m78.767715 118.23491l0 0c0 -7.2362366 5.866127 -13.102364 13.102364 -13.102364l0 0c3.4749603 0 6.807602 1.3804245 9.2647705 3.837593c2.4571686 2.4571686 3.837593 5.78981 3.837593 9.2647705l0 0c0 7.2362366 -5.866127 13.102356 -13.102364 13.102356l0 0c-7.2362366 0 -13.102364 -5.8661194 -13.102364 -13.102356z" fill-rule="evenodd"/><path fill="#000000" fill-opacity="0.0" d="m77.019684 96.896324l29.70079 0l0 42.677162l-29.70079 0z" fill-rule="evenodd"/><path fill="#ffffff" d="m95.47281 122.78507l0 1.03125l-7.5 0l0 -1.03125l3.296875 0l0 -8.5625l-3.296875 0.671875l0 -1.015625l4.3125 -0.953125l0 9.859375l3.1875 0z" fill-rule="nonzero"/><path fill="#ffffff" d="m57.996063 180.93832l0 0c0 -18.7081 15.165916 -33.874023 33.874016 -33.874023l0 0c8.983948 0 17.599937 3.568863 23.952545 9.921478c6.3526077 6.3526 9.921471 14.968597 9.921471 23.952545l0 0c0 18.7081 -15.165916 33.87401 -33.874016 33.87401l0 0c-18.7081 0 -33.874016 -15.165909 -33.874016 -33.87401z" fill-rule="evenodd"/><path fill="#000000" fill-opacity="0.0" d="m71.77559 144.33989l40.18898 0l0 73.19685l-40.18898 0z" fill-rule="evenodd"/><path fill="#000000" d="m99.49434 170.69302q0.796875 0.84375 1.21875 2.0625q0.421875 1.21875 0.421875 2.421875q0 3.71875 -3.40625 5.25q2.328125 0.46875 3.625 1.875q1.296875 1.390625 1.296875 3.4375q0 2.484375 -1.796875 4.25q-1.796875 1.75 -5.5625 1.75l-12.828125 0l0 -2.203125l3.109375 0l0 -18.484375l-3.109375 0l0 -2.1875l10.546875 0q4.6875 0 6.484375 1.828125zm-0.5625 4.328125q0 -1.875 -1.5625 -3.046875q-0.71875 -0.515625 -1.875 -0.71875q-1.15625 -0.203125 -3.515625 -0.203125l-4.203125 0l0 8.28125l5.234375 0q3.25 0 4.578125 -1.1875q1.34375 -1.203125 1.34375 -3.125zm1.53125 10.765625q0 -2.09375 -1.953125 -3.140625q-1.9375 -1.0625 -4.78125 -1.0625l-5.953125 0l0 7.953125l6.6875 0q6.0 0 6.0 -3.75z" fill-rule="nonzero"/><path fill="#ff0000" d="m78.767715 214.36876l0 0c0 -7.2362213 5.866127 -13.102356 13.102364 -13.102356l0 0c3.4749603 0 6.807602 1.3804169 9.2647705 3.8376007c2.4571686 2.4571686 3.837593 5.789795 3.837593 9.264755l0 0c0 7.2362366 -5.866127 13.102371 -13.102364 13.102371l0 0c-7.2362366 0 -13.102364 -5.8661346 -13.102364 -13.102371z" fill-rule="evenodd"/><path fill="#000000" fill-opacity="0.0" d="m77.019684 193.03018l29.70079 0l0 42.67717l-29.70079 0z" fill-rule="evenodd"/><path fill="#ffffff" d="m94.94156 212.20018q0 0.734375 -0.203125 1.265625q-0.1875 0.515625 -0.765625 1.15625q-0.578125 0.640625 -1.78125 1.609375l-3.296875 2.6875l5.03125 0l0 -1.3125l1.015625 0l0 2.34375l-7.515625 0l0 -1.09375l4.15625 -3.265625q1.46875 -1.15625 1.90625 -1.84375q0.453125 -0.703125 0.453125 -1.296875q0 -1.03125 -0.765625 -1.703125q-0.75 -0.6875 -1.90625 -0.6875q-1.0 0 -1.703125 0.484375q-0.6875 0.484375 -0.71875 1.3125l-1.0 0l0 -1.328125q1.421875 -1.46875 3.484375 -1.46875q0.96875 0 1.796875 0.4375q0.84375 0.421875 1.328125 1.15625q0.484375 0.71875 0.484375 1.546875z" fill-rule="nonzero"/><path fill="#ffffff" d="m57.996063 285.3071l0 0c0 -18.7081 15.165916 -33.874023 33.874016 -33.874023l0 0c8.983948 0 17.599937 3.5688477 23.952545 9.921478c6.3526077 6.3526 9.921471 14.968597 9.921471 23.952545l0 0c0 18.7081 -15.165916 33.873993 -33.874016 33.873993l0 0c-18.7081 0 -33.874016 -15.165894 -33.874016 -33.873993z" fill-rule="evenodd"/><path fill="#000000" fill-opacity="0.0" d="m71.77559 248.70866l40.18898 0l0 73.19685l-40.18898 0z" fill-rule="evenodd"/><path fill="#000000" d="m100.822464 275.1868l0 -2.4375l2.15625 0l0 8.515625l-2.15625 0l0 -3.234375q-1.453125 -1.515625 -3.171875 -2.3125q-1.71875 -0.8125 -3.515625 -0.8125q-1.59375 0 -3.140625 0.640625q-1.53125 0.640625 -2.734375 1.84375q-1.203125 1.203125 -1.90625 2.9375q-0.703125 1.734375 -0.703125 3.65625q0 4.125 1.640625 6.640625q1.203125 1.796875 3.0625 2.796875q1.859375 1.0 4.21875 1.0q1.890625 0 3.828125 -0.671875q1.9375 -0.6875 3.6875 -1.953125l0.96875 1.875q-1.96875 1.4375 -4.203125 2.203125q-2.234375 0.75 -4.484375 0.75q-3.359375 0 -5.84375 -1.578125q-2.46875 -1.578125 -3.796875 -4.390625q-1.3125 -2.828125 -1.3125 -6.421875q0 -3.171875 1.359375 -5.796875q1.359375 -2.640625 3.734375 -4.15625q2.390625 -1.53125 5.34375 -1.53125q1.71875 0 3.3125 0.53125q1.609375 0.515625 3.65625 1.90625z" fill-rule="nonzero"/><path fill="#ff0000" d="m78.767715 318.73752l0 0c0 -7.236206 5.866127 -13.102356 13.102364 -13.102356l0 0c3.4749603 0 6.807602 1.3804321 9.2647705 3.837616c2.4571686 2.4571533 3.837593 5.789795 3.837593 9.26474l0 0c0 7.2362366 -5.866127 13.102386 -13.102364 13.102386l0 0c-7.2362366 0 -13.102364 -5.86615 -13.102364 -13.102386z" fill-rule="evenodd"/><path fill="#000000" fill-opacity="0.0" d="m77.019684 297.39896l29.70079 0l0 42.677155l-29.70079 0z" fill-rule="evenodd"/><path fill="#ffffff" d="m94.19156 316.33456q0 0.828125 -0.328125 1.390625q-0.3125 0.5625 -1.125 1.125q0.984375 0.25 1.53125 0.921875q0.5625 0.671875 0.5625 1.671875q0 0.9375 -0.515625 1.640625q-0.5 0.6875 -1.359375 1.078125q-0.859375 0.375 -1.859375 0.375q-1.6875 0 -3.5625 -0.8125l0.25 -0.875q1.828125 0.671875 3.109375 0.671875q1.296875 0 2.109375 -0.59375q0.828125 -0.609375 0.828125 -1.515625q0 -0.765625 -0.703125 -1.34375q-0.6875 -0.578125 -2.265625 -0.578125l-0.484375 0l0 -1.03125q1.328125 0 2.0625 -0.59375q0.734375 -0.59375 0.734375 -1.5q0 -0.828125 -0.640625 -1.375q-0.625 -0.5625 -1.6875 -0.5625q-1.265625 0 -2.734375 0.875l-0.34375 -0.8125q1.640625 -1.0625 3.34375 -1.0625q0.8125 0 1.515625 0.359375q0.71875 0.359375 1.140625 1.03125q0.421875 0.65625 0.421875 1.515625z" fill-rule="nonzero"/><path fill="#ffffff" d="m165.49738 87.52887l0 0c0 -18.7081 15.165909 -33.874016 33.87401 -33.874016l0 0c8.983948 0 17.599945 3.568863 23.95256 9.921471c6.3526 6.3526077 9.921463 14.968597 9.921463 23.952545l0 0c0 18.708107 -15.165909 33.874016 -33.874023 33.874016l0 0c-18.7081 0 -33.87401 -15.165909 -33.87401 -33.874016z" fill-rule="evenodd"/><path fill="#000000" fill-opacity="0.0" d="m179.2769 50.930447l40.18898 0l0 73.19685l-40.18898 0z" fill-rule="evenodd"/><path fill="#000000" d="m207.79253 78.12732q2.796875 2.796875 2.796875 8.25q0 4.3125 -1.359375 7.0q-0.953125 1.828125 -2.203125 2.890625q-1.234375 1.0625 -3.203125 1.5625q-1.953125 0.5 -5.03125 0.5l-9.15625 0l0 -2.203125l3.125 0l0 -18.484375l-3.125 0l0 -2.1875l10.15625 0q2.96875 0 4.796875 0.65625q1.84375 0.65625 3.203125 2.015625zm-1.28125 15.359375q0.921875 -1.3125 1.40625 -3.09375q0.484375 -1.78125 0.484375 -3.703125q0 -2.40625 -0.671875 -4.34375q-0.65625 -1.9375 -1.765625 -2.890625q-1.25 -1.046875 -2.546875 -1.421875q-1.296875 -0.390625 -4.015625 -0.390625l-4.484375 0l0 18.484375l4.59375 0q2.453125 0 4.25 -0.65625q1.796875 -0.65625 2.75 -1.984375z" fill-rule="nonzero"/><path fill="#ff0000" d="m186.26903 120.95932l0 0c0 -7.2362366 5.8661346 -13.102364 13.102356 -13.102364l0 0c3.4749756 0 6.807602 1.3804245 9.2647705 3.837593c2.4571686 2.4571686 3.8376007 5.7898026 3.8376007 9.2647705l0 0c0 7.2362366 -5.8661346 13.102356 -13.102371 13.102356l0 0c-7.2362213 0 -13.102356 -5.8661194 -13.102356 -13.102356z" fill-rule="evenodd"/><path fill="#000000" fill-opacity="0.0" d="m184.521 99.620735l29.70079 0l0 42.677162l-29.70079 0z" fill-rule="evenodd"/><path fill="#ffffff" d="m200.80225 122.49386l1.75 0l0 1.03125l-1.75 0l0 1.984375l1.75 0l0 1.03125l-4.828125 0l0 -1.03125l2.046875 0l0 -1.984375l-5.109375 0l0 -0.921875l4.640625 -6.734375l1.5 0l0 6.625zm-5.0 0l3.96875 0l0 -5.734375l-3.96875 5.734375z" fill-rule="nonzero"/><path fill="#ffffff" d="m435.1063 301.25198l0 0c0 -18.70813 15.165924 -33.874023 33.874023 -33.874023l0 0c8.983948 0 17.599945 3.5688477 23.952545 9.921448c6.3526 6.3526306 9.921478 14.968628 9.921478 23.952576l0 0c0 18.7081 -15.165924 33.873993 -33.874023 33.873993l0 0c-18.7081 0 -33.874023 -15.165894 -33.874023 -33.873993z" fill-rule="evenodd"/><path fill="#000000" fill-opacity="0.0" d="m448.88583 264.65353l40.188965 0l0 73.19687l-40.188965 0z" fill-rule="evenodd"/><path fill="#000000" d="m476.60458 291.00665q0.796875 0.84375 1.21875 2.0625q0.421875 1.21875 0.421875 2.421875q0 3.71875 -3.40625 5.25q2.328125 0.46875 3.625 1.875q1.296875 1.390625 1.296875 3.4375q0 2.484375 -1.796875 4.25q-1.796875 1.75 -5.5625 1.75l-12.828125 0l0 -2.203125l3.109375 0l0 -18.484375l-3.109375 0l0 -2.1875l10.546875 0q4.6875 0 6.484375 1.828125zm-0.5625 4.328125q0 -1.875 -1.5625 -3.046875q-0.71875 -0.515625 -1.875 -0.71875q-1.15625 -0.203125 -3.515625 -0.203125l-4.203125 0l0 8.28125l5.234375 0q3.25 0 4.578125 -1.1875q1.34375 -1.203125 1.34375 -3.125zm1.53125 10.765625q0 -2.09375 -1.953125 -3.140625q-1.9375 -1.0625 -4.78125 -1.0625l-5.953125 0l0 7.953125l6.6875 0q6.0 0 6.0 -3.75z" fill-rule="nonzero"/><path fill="#ff0000" d="m455.87796 334.6824l0 0c0 -7.2362366 5.8661194 -13.102356 13.102356 -13.102356l0 0c3.4749756 0 6.8075867 1.3804321 9.2647705 3.8375854c2.4571533 2.4571838 3.8375854 5.7898254 3.8375854 9.2647705l0 0c0 7.2362366 -5.8661194 13.102386 -13.102356 13.102386l0 0c-7.2362366 0 -13.102356 -5.86615 -13.102356 -13.102386z" fill-rule="evenodd"/><path fill="#000000" fill-opacity="0.0" d="m454.1299 313.34384l29.700806 0l0 42.677155l-29.700806 0z" fill-rule="evenodd"/><path fill="#ffffff" d="m472.52054 338.6857l0 1.578125l-8.828125 0q-0.015625 -0.59375 0.1875 -1.140625q0.34375 -0.90625 1.078125 -1.78125q0.75 -0.875 2.15625 -2.015625q2.171875 -1.78125 2.9375 -2.828125q0.765625 -1.046875 0.765625 -1.96875q0 -0.984375 -0.703125 -1.640625q-0.6875 -0.671875 -1.8125 -0.671875q-1.1875 0 -1.90625 0.71875q-0.703125 0.703125 -0.703125 1.953125l-1.6875 -0.171875q0.171875 -1.890625 1.296875 -2.875q1.140625 -0.984375 3.03125 -0.984375q1.921875 0 3.046875 1.0625q1.125 1.0625 1.125 2.640625q0 0.796875 -0.328125 1.578125q-0.328125 0.78125 -1.09375 1.640625q-0.75 0.84375 -2.53125 2.34375q-1.46875 1.234375 -1.890625 1.6875q-0.421875 0.4375 -0.6875 0.875l6.546875 0z" fill-rule="nonzero"/><path fill="#ffffff" d="m585.2979 298.52756l0 0c0 -18.7081 15.165894 -33.874023 33.874023 -33.874023l0 0c8.983948 0 17.599915 3.5688782 23.952515 9.921478c6.3526 6.3526 9.921509 14.968597 9.921509 23.952545l0 0c0 18.7081 -15.165955 33.874023 -33.874023 33.874023l0 0c-18.70813 0 -33.874023 -15.165924 -33.874023 -33.874023z" fill-rule="evenodd"/><path fill="#000000" fill-opacity="0.0" d="m599.07745 261.92914l40.188965 0l0 73.19684l-40.188965 0z" fill-rule="evenodd"/><path fill="#000000" d="m630.0306 307.126l2.171875 0l0 2.203125l-8.359375 0l0 -2.203125l3.921875 0l-1.8125 -4.5625l-11.5625 0l-1.71875 4.5625l3.640625 0l0 2.203125l-8.46875 0l0 -2.203125l2.46875 0l7.328125 -18.484375l-5.71875 0l0 -2.1875l9.796875 0l8.3125 20.671875zm-4.953125 -6.75l-5.046875 -12.359375l-4.75 12.359375l9.796875 0z" fill-rule="nonzero"/><path fill="#ff0000" d="m606.0696 331.958l0 0c0 -7.2362366 5.866089 -13.102356 13.102356 -13.102356l0 0c3.4749146 0 6.807556 1.3804016 9.2647705 3.8375854c2.4571533 2.4571533 3.8375854 5.789795 3.8375854 9.2647705l0 0c0 7.2362366 -5.86615 13.102356 -13.102356 13.102356l0 0c-7.236267 0 -13.102356 -5.8661194 -13.102356 -13.102356z" fill-rule="evenodd"/><path fill="#000000" fill-opacity="0.0" d="m604.32153 310.61942l29.700806 0l0 42.677185l-29.700806 0z" fill-rule="evenodd"/><path fill="#ffffff" d="m622.77466 336.50818l0 1.03125l-7.5 0l0 -1.03125l3.296875 0l0 -8.5625l-3.296875 0.671875l0 -1.015625l4.3125 -0.953125l0 9.859375l3.1875 0z" fill-rule="nonzero"/><path fill="#ffffff" d="m642.2559 185.05511l0 0c0 -18.7081 15.165894 -33.87401 33.874023 -33.87401l0 0c8.983948 0 17.599915 3.5688477 23.952515 9.921463c6.3526 6.3526154 9.921509 14.968597 9.921509 23.952545l0 0c0 18.7081 -15.165955 33.874023 -33.874023 33.874023l0 0c-18.70813 0 -33.874023 -15.165924 -33.874023 -33.874023z" fill-rule="evenodd"/><path fill="#000000" fill-opacity="0.0" d="m656.03546 148.4567l40.188965 0l0 73.19685l-40.188965 0z" fill-rule="evenodd"/><path fill="#000000" d="m685.08234 174.93481l0 -2.4375l2.15625 0l0 8.515625l-2.15625 0l0 -3.234375q-1.453125 -1.515625 -3.171875 -2.3125q-1.71875 -0.8125 -3.515625 -0.8125q-1.59375 0 -3.140625 0.640625q-1.53125 0.640625 -2.734375 1.84375q-1.203125 1.203125 -1.90625 2.9375q-0.703125 1.734375 -0.703125 3.65625q0 4.125 1.640625 6.640625q1.203125 1.796875 3.0625 2.796875q1.859375 1.0 4.21875 1.0q1.890625 0 3.828125 -0.671875q1.9375 -0.6875 3.6875 -1.953125l0.96875 1.875q-1.96875 1.4375 -4.203125 2.203125q-2.234375 0.75 -4.484375 0.75q-3.359375 0 -5.84375 -1.578125q-2.46875 -1.578125 -3.796875 -4.390625q-1.3125 -2.828125 -1.3125 -6.421875q0 -3.171875 1.359375 -5.796875q1.359375 -2.640625 3.734375 -4.15625q2.390625 -1.53125 5.34375 -1.53125q1.71875 0 3.3125 0.53125q1.609375 0.515625 3.65625 1.90625z" fill-rule="nonzero"/><path fill="#ff0000" d="m663.0276 218.48557l0 0c0 -7.2362366 5.866089 -13.102356 13.102356 -13.102356l0 0c3.4749146 0 6.807556 1.3804169 9.2647705 3.8375854c2.4571533 2.4571686 3.8375854 5.78981 3.8375854 9.2647705l0 0c0 7.2362366 -5.86615 13.102356 -13.102356 13.102356l0 0c-7.236267 0 -13.102356 -5.8661194 -13.102356 -13.102356z" fill-rule="evenodd"/><path fill="#000000" fill-opacity="0.0" d="m661.27954 197.14699l29.700745 0l0 42.677155l-29.700745 0z" fill-rule="evenodd"/><path fill="#ffffff" d="m678.4514 216.08261q0 0.828125 -0.328125 1.390625q-0.3125 0.5625 -1.125 1.125q0.984375 0.25 1.53125 0.921875q0.5625 0.671875 0.5625 1.671875q0 0.9375 -0.515625 1.640625q-0.5 0.6875 -1.359375 1.078125q-0.859375 0.375 -1.859375 0.375q-1.6875 0 -3.5625 -0.8125l0.25 -0.875q1.828125 0.671875 3.109375 0.671875q1.296875 0 2.109375 -0.59375q0.828125 -0.609375 0.828125 -1.515625q0 -0.765625 -0.703125 -1.34375q-0.6875 -0.578125 -2.265625 -0.578125l-0.484375 0l0 -1.03125q1.328125 0 2.0625 -0.59375q0.734375 -0.59375 0.734375 -1.5q0 -0.828125 -0.640625 -1.375q-0.625 -0.5625 -1.6875 -0.5625q-1.265625 0 -2.734375 0.875l-0.34375 -0.8125q1.640625 -1.0625 3.34375 -1.0625q0.8125 0 1.515625 0.359375q0.71875 0.359375 1.140625 1.03125q0.421875 0.65625 0.421875 1.515625z" fill-rule="nonzero"/><path fill="#ffffff" d="m423.58398 67.30052l0 0c0 -18.7081 15.165924 -33.874012 33.874023 -33.874012l0 0c8.983948 0 17.599945 3.568859 23.952545 9.921471c6.3526 6.3526077 9.921478 14.968597 9.921478 23.952541l0 0c0 18.708107 -15.165924 33.874016 -33.874023 33.874016l0 0c-18.7081 0 -33.874023 -15.165909 -33.874023 -33.874016z" fill-rule="evenodd"/><path fill="#000000" fill-opacity="0.0" d="m437.36353 30.702099l40.188965 0l0 73.19685l-40.188965 0z" fill-rule="evenodd"/><path fill="#000000" d="m465.87915 57.89897q2.796875 2.796875 2.796875 8.25q0 4.3125 -1.359375 7.0q-0.953125 1.828125 -2.203125 2.890625q-1.234375 1.0625 -3.203125 1.5625q-1.953125 0.5 -5.03125 0.5l-9.15625 0l0 -2.203125l3.125 0l0 -18.484375l-3.125 0l0 -2.1875l10.15625 0q2.96875 0 4.796875 0.65625q1.84375 0.65625 3.203125 2.015625zm-1.28125 15.359375q0.921875 -1.3125 1.40625 -3.09375q0.484375 -1.78125 0.484375 -3.703125q0 -2.40625 -0.671875 -4.34375q-0.65625 -1.9375 -1.765625 -2.890625q-1.25 -1.046875 -2.546875 -1.421875q-1.296875 -0.390625 -4.015625 -0.390625l-4.484375 0l0 18.484375l4.59375 0q2.453125 0 4.25 -0.65625q1.796875 -0.65625 2.75 -1.984375z" fill-rule="nonzero"/><path fill="#ff0000" d="m444.35565 100.73097l0 0c0 -7.2362366 5.8661194 -13.102364 13.102356 -13.102364l0 0c3.474945 0 6.8075867 1.3804245 9.2647705 3.837593c2.4571533 2.4571686 3.8375854 5.78981 3.8375854 9.2647705l0 0c0 7.2362366 -5.8661194 13.102364 -13.102356 13.102364l0 0c-7.2362366 0 -13.102356 -5.866127 -13.102356 -13.102364z" fill-rule="evenodd"/><path fill="#000000" fill-opacity="0.0" d="m442.6076 79.39239l29.700806 0l0 42.67717l-29.700806 0z" fill-rule="evenodd"/><path fill="#ffffff" d="m458.88885 102.26551l1.75 0l0 1.03125l-1.75 0l0 1.984375l1.75 0l0 1.03125l-4.828125 0l0 -1.03125l2.046875 0l0 -1.984375l-5.109375 0l0 -0.921875l4.640625 -6.734375l1.5 0l0 6.625zm-5.0 0l3.96875 0l0 -5.734375l-3.96875 5.734375z" fill-rule="nonzero"/><path fill="#ffffff" d="m585.2979 64.57743l0 0c0 -18.708107 15.165894 -33.874016 33.874023 -33.874016l0 0c8.983948 0 17.599915 3.5688572 23.952515 9.921469c6.3526 6.3526115 9.921509 14.968597 9.921509 23.952549l0 0c0 18.7081 -15.165955 33.874016 -33.874023 33.874016l0 0c-18.70813 0 -33.874023 -15.165916 -33.874023 -33.874016z" fill-rule="evenodd"/><path fill="#000000" fill-opacity="0.0" d="m599.07745 27.979002l40.188965 0l0 73.196846l-40.188965 0z" fill-rule="evenodd"/><path fill="#000000" d="m629.4368 60.144627l-2.203125 0l0 -5.453125l-11.5625 0l0 8.171875l6.40625 0l0 -2.96875l2.203125 0l0 8.078121l-2.203125 0l0 -2.90625l-6.40625 0l0 8.109375l11.8125 0l0 -5.4375l2.1875 0l0 7.640625l-19.3125 0l0 -2.203125l3.15625 0l0 -18.484371l-3.234375 0l0 -2.1875l19.15625 0l0 7.640625z" fill-rule="nonzero"/><path fill="#ff0000" d="m606.0696 98.00787l0 0c0 -7.2362366 5.866089 -13.102364 13.102356 -13.102364l0 0c3.4749146 0 6.807556 1.3804245 9.2647705 3.837593c2.4571533 2.4571686 3.8375854 5.78981 3.8375854 9.2647705l0 0c0 7.2362366 -5.86615 13.102364 -13.102356 13.102364l0 0c-7.236267 0 -13.102356 -5.866127 -13.102356 -13.102364z" fill-rule="evenodd"/><path fill="#000000" fill-opacity="0.0" d="m604.32153 76.66929l29.700806 0l0 42.67717l-29.700806 0z" fill-rule="evenodd"/><path fill="#ffffff" d="m622.07153 93.94866l-5.421875 0l0 3.65625q1.109375 -0.5625 2.421875 -0.5625q1.046875 0 1.859375 0.4375q0.828125 0.4375 1.265625 1.203125q0.453125 0.765625 0.453125 1.71875q0 0.890625 -0.46875 1.671875q-0.453125 0.78125 -1.359375 1.265625q-0.890625 0.46875 -2.203125 0.46875q-0.75 0 -1.609375 -0.171875q-0.859375 -0.15625 -2.015625 -0.546875l0.21875 -1.03125q1.828125 0.734375 3.3125 0.734375q1.40625 0 2.265625 -0.65625q0.859375 -0.65625 0.859375 -1.703125q0 -0.65625 -0.375 -1.1875q-0.359375 -0.546875 -1.015625 -0.859375q-0.65625 -0.3125 -1.484375 -0.3125q-1.25 0 -2.4375 0.703125l-0.71875 -0.171875l0 -5.6875l6.453125 0l0 1.03125z" fill-rule="nonzero"/><path fill="#ffffff" d="m165.49738 182.29921l0 0c0 -18.7081 15.165909 -33.87401 33.87401 -33.87401l0 0c8.983948 0 17.599945 3.5688477 23.95256 9.921463c6.3526 6.3526154 9.921463 14.968597 9.921463 23.952545l0 0c0 18.7081 -15.165909 33.874023 -33.874023 33.874023l0 0c-18.7081 0 -33.87401 -15.165924 -33.87401 -33.874023z" fill-rule="evenodd"/><path fill="#000000" fill-opacity="0.0" d="m179.2769 145.70079l40.18898 0l0 73.19685l-40.18898 0z" fill-rule="evenodd"/><path fill="#000000" d="m209.63628 177.86641l-2.203125 0l0 -5.453125l-11.5625 0l0 8.171875l6.40625 0l0 -2.96875l2.203125 0l0 8.078125l-2.203125 0l0 -2.90625l-6.40625 0l0 8.109375l11.8125 0l0 -5.4375l2.1875 0l0 7.640625l-19.3125 0l0 -2.203125l3.15625 0l0 -18.484375l-3.234375 0l0 -2.1875l19.15625 0l0 7.640625z" fill-rule="nonzero"/><path fill="#ff0000" d="m186.26903 215.72966l0 0c0 -7.2362366 5.8661346 -13.102356 13.102356 -13.102356l0 0c3.4749756 0 6.807602 1.3804169 9.2647705 3.8375854c2.4571686 2.4571686 3.8376007 5.78981 3.8376007 9.2647705l0 0c0 7.2362366 -5.8661346 13.102356 -13.102371 13.102356l0 0c-7.2362213 0 -13.102356 -5.8661194 -13.102356 -13.102356z" fill-rule="evenodd"/><path fill="#000000" fill-opacity="0.0" d="m184.521 194.39108l29.70079 0l0 42.677155l-29.70079 0z" fill-rule="evenodd"/><path fill="#ffffff" d="m202.271 211.67046l-5.421875 0l0 3.65625q1.109375 -0.5625 2.421875 -0.5625q1.046875 0 1.859375 0.4375q0.828125 0.4375 1.265625 1.203125q0.453125 0.765625 0.453125 1.71875q0 0.890625 -0.46875 1.671875q-0.453125 0.78125 -1.359375 1.265625q-0.890625 0.46875 -2.203125 0.46875q-0.75 0 -1.609375 -0.171875q-0.859375 -0.15625 -2.015625 -0.546875l0.21875 -1.03125q1.828125 0.734375 3.3125 0.734375q1.40625 0 2.265625 -0.65625q0.859375 -0.65625 0.859375 -1.703125q0 -0.65625 -0.375 -1.1875q-0.359375 -0.546875 -1.015625 -0.859375q-0.65625 -0.3125 -1.484375 -0.3125q-1.25 0 -2.4375 0.703125l-0.71875 -0.171875l0 -5.6875l6.453125 0l0 1.03125z" fill-rule="nonzero"/><path fill="#ffffff" d="m165.49738 285.3071l0 0c0 -18.7081 15.165909 -33.874023 33.87401 -33.874023l0 0c8.983948 0 17.599945 3.5688477 23.95256 9.921478c6.3526 6.3526 9.921463 14.968597 9.921463 23.952545l0 0c0 18.7081 -15.165909 33.873993 -33.874023 33.873993l0 0c-18.7081 0 -33.87401 -15.165894 -33.87401 -33.873993z" fill-rule="evenodd"/><path fill="#000000" fill-opacity="0.0" d="m179.2769 248.70866l40.18898 0l0 73.19685l-40.18898 0z" fill-rule="evenodd"/><path fill="#000000" d="m210.43315 280.82742l-2.203125 0l0 -5.40625l-11.640625 0l0 8.171875l6.453125 0l0 -2.96875l2.1875 0l0 8.078125l-2.1875 0l0 -2.90625l-6.453125 0l0 8.109375l5.25 0l0 2.203125l-10.484375 0l0 -2.203125l3.046875 0l0 -18.484375l-3.078125 0l0 -2.1875l19.109375 0l0 7.59375z" fill-rule="nonzero"/><path fill="#ff0000" d="m186.26903 318.73752l0 0c0 -7.236206 5.8661346 -13.102356 13.102356 -13.102356l0 0c3.4749756 0 6.807602 1.3804321 9.2647705 3.837616c2.4571686 2.4571533 3.8376007 5.789795 3.8376007 9.26474l0 0c0 7.2362366 -5.8661346 13.102386 -13.102371 13.102386l0 0c-7.2362213 0 -13.102356 -5.86615 -13.102356 -13.102386z" fill-rule="evenodd"/><path fill="#000000" fill-opacity="0.0" d="m184.521 297.39896l29.70079 0l0 42.677155l-29.70079 0z" fill-rule="evenodd"/><path fill="#ffffff" d="m202.66162 314.4752l-1.421875 0q-1.296875 0 -2.40625 0.578125q-1.09375 0.578125 -1.78125 1.75q-0.671875 1.171875 -0.71875 2.84375q1.1875 -1.578125 3.03125 -1.578125q0.921875 0 1.65625 0.421875q0.75 0.421875 1.15625 1.15625q0.40625 0.734375 0.40625 1.671875q0 0.921875 -0.4375 1.671875q-0.4375 0.734375 -1.203125 1.15625q-0.765625 0.421875 -1.6875 0.421875q-1.109375 0 -2.015625 -0.5625q-0.890625 -0.578125 -1.40625 -1.65625q-0.5 -1.078125 -0.5 -2.53125q0 -2.125 0.859375 -3.5625q0.875 -1.453125 2.21875 -2.140625q1.359375 -0.6875 2.828125 -0.6875l1.421875 0l0 1.046875zm-3.546875 9.0625q1.15625 0 1.8125 -0.609375q0.671875 -0.625 0.671875 -1.59375q0 -0.984375 -0.671875 -1.609375q-0.671875 -0.625 -1.75 -0.625q-0.84375 0 -1.609375 0.453125q-0.765625 0.453125 -1.1875 1.234375q0.1875 1.28125 0.90625 2.015625q0.71875 0.734375 1.828125 0.734375z" fill-rule="nonzero"/><path fill="#ffffff" d="m360.37534 185.05511l0 0c0 -18.7081 15.165894 -33.87401 33.873993 -33.87401l0 0c8.983948 0 17.599945 3.5688477 23.952576 9.921463c6.3526 6.3526154 9.921448 14.968597 9.921448 23.952545l0 0c0 18.7081 -15.165894 33.874023 -33.874023 33.874023l0 0c-18.7081 0 -33.873993 -15.165924 -33.873993 -33.874023z" fill-rule="evenodd"/><path fill="#000000" fill-opacity="0.0" d="m374.15485 148.4567l40.188995 0l0 73.19685l-40.188995 0z" fill-rule="evenodd"/><path fill="#000000" d="m405.3111 180.57544l-2.203125 0l0 -5.40625l-11.640625 0l0 8.171875l6.453125 0l0 -2.96875l2.1875 0l0 8.078125l-2.1875 0l0 -2.90625l-6.453125 0l0 8.109375l5.25 0l0 2.203125l-10.484375 0l0 -2.203125l3.046875 0l0 -18.484375l-3.078125 0l0 -2.1875l19.109375 0l0 7.59375z" fill-rule="nonzero"/><path fill="#ff0000" d="m381.14697 218.48557l0 0c0 -7.2362366 5.86615 -13.102356 13.102356 -13.102356l0 0c3.4749756 0 6.807617 1.3804169 9.2647705 3.8375854c2.4571838 2.4571686 3.837616 5.78981 3.837616 9.2647705l0 0c0 7.2362366 -5.86615 13.102356 -13.102386 13.102356l0 0c-7.236206 0 -13.102356 -5.8661194 -13.102356 -13.102356z" fill-rule="evenodd"/><path fill="#000000" fill-opacity="0.0" d="m379.39896 197.14699l29.700775 0l0 42.677155l-29.700775 0z" fill-rule="evenodd"/><path fill="#ffffff" d="m397.53958 214.22324l-1.421875 0q-1.296875 0 -2.40625 0.578125q-1.09375 0.578125 -1.78125 1.75q-0.671875 1.171875 -0.71875 2.84375q1.1875 -1.578125 3.03125 -1.578125q0.921875 0 1.65625 0.421875q0.75 0.421875 1.15625 1.15625q0.40625 0.734375 0.40625 1.671875q0 0.921875 -0.4375 1.671875q-0.4375 0.734375 -1.203125 1.15625q-0.765625 0.421875 -1.6875 0.421875q-1.109375 0 -2.015625 -0.5625q-0.890625 -0.578125 -1.40625 -1.65625q-0.5 -1.078125 -0.5 -2.53125q0 -2.125 0.859375 -3.5625q0.875 -1.453125 2.21875 -2.140625q1.359375 -0.6875 2.828125 -0.6875l1.421875 0l0 1.046875zm-3.546875 9.0625q1.15625 0 1.8125 -0.609375q0.671875 -0.625 0.671875 -1.59375q0 -0.984375 -0.671875 -1.609375q-0.671875 -0.625 -1.75 -0.625q-0.84375 0 -1.609375 0.453125q-0.765625 0.453125 -1.1875 1.234375q0.1875 1.28125 0.90625 2.015625q0.71875 0.734375 1.828125 0.734375z" fill-rule="nonzero"/><path fill="#ffffff" d="m262.7651 195.47769l45.480286 0l0 -7.81102l15.62207 15.62204l-15.62207 15.622055l0 -7.811035l-45.480286 0z" fill-rule="evenodd"/><path fill="#ffffff" d="m401.1033 135.31902l19.711853 -31.04232l-3.3779297 -2.1417313l11.044006 -2.46949l2.467804 11.036415l-3.3779602 -2.1417313l-19.711884 31.04232z" fill-rule="evenodd"/><path fill="#ffffff" d="m560.70764 340.08978l-36.787354 0l0 4.0l-8.0 -8.0l8.0 -8.0l0 4.0l36.787354 0z" fill-rule="evenodd"/><path fill="#ffffff" d="m676.7146 240.30289l-16.71228 32.777832l3.5669556 1.8110046l-10.768066 3.5056458l-3.4996338 -10.749725l3.5668945 1.8110046l16.71228 -32.7778z" fill-rule="evenodd"/><path fill="#ffffff" d="m515.9222 48.343185l36.787415 0l0 -4.0l8.0 8.0l-8.0 8.0l0 -4.0l-36.787415 0z" fill-rule="evenodd"/><path fill="#ffffff" d="m649.9849 99.668755l18.776001 31.603706l3.440918 -2.0472412l-2.791748 10.978973l-10.972046 -2.7899933l3.440979 -2.0472565l-18.776001 -31.603699z" fill-rule="evenodd"/><path fill="#ffffff" d="m419.33984 284.0381l-17.610321 -32.272644l-3.5118103 1.9291382l3.1851196 -10.892715l10.862122 3.176178l-3.5118103 1.9291382l17.610321 32.27263z" fill-rule="evenodd"/></g></svg>